<svg xmlns="http://www.w3.org/2000/svg" viewBox="0 0 1200 800">
<defs><linearGradient id="g" x1="0" x2="1" y1="0" y2="1"><stop stop-color="#17130f"/><stop offset=".55" stop-color="#30251a"/><stop offset="1" stop-color="#0b0d0e"/></linearGradient></defs>
<rect width="1200" height="800" fill="url(#g)"/><path d="M0 650 Q250 560 500 650 T1200 620 V800 H0Z" fill="#0a0b0c"/>
<g fill="none" stroke="#c7a96b" stroke-width="5" opacity=".7"><path d="M190 600V330h220v270M790 600V330h220v270"/><path d="M410 600V260h380v340"/><path d="M500 600V360h200v240"/><path d="M545 360h110l-55-90z"/></g>
<g stroke="#c7a96b" stroke-width="3" opacity=".5"><path d="M120 690h960"/><path d="M260 650l90-130M940 650l-90-130"/><circle cx="600" cy="400" r="155"/><path d="M445 400h310M600 245v310"/></g>
<text x="600" y="120" text-anchor="middle" fill="#e7e1d2" font-family="serif" font-size="58" letter-spacing="8">WRÓTA BALDURA</text>
<text x="600" y="170" text-anchor="middle" fill="#c7a96b" font-family="monospace" font-size="20" letter-spacing="5">HEROES OF BALDUR'S GATE</text>
</svg>